Coordinates
version=1
nRows=10
nColumns=40
inDegrees=yes

Units are S.I. units (second, meters, Newtons, ...)
Angles are in degrees.

endheader
time	pelvis_tilt	pelvis_list	pelvis_rotation	pelvis_tx	pelvis_ty	pelvis_tz	hip_flexion_r	hip_adduction_r	hip_rotation_r	knee_angle_r	knee_angle_r_beta	ankle_angle_r	subtalar_angle_r	mtp_angle_r	hip_flexion_l	hip_adduction_l	hip_rotation_l	knee_angle_l	knee_angle_l_beta	ankle_angle_l	subtalar_angle_l	mtp_angle_l	lumbar_extension	lumbar_bending	lumbar_rotation	arm_flex_r	arm_add_r	arm_rot_r	elbow_flex_r	pro_sup_r	wrist_flex_r	wrist_dev_r	arm_flex_l	arm_add_l	arm_rot_l	elbow_flex_l	pro_sup_l	wrist_flex_l	wrist_dev_l
     52.45828571	     -0.31360410	     -3.04931082	      0.68879217	      1.08190378	      0.93547177	      0.44033005	     31.48042943	     -6.90765952	     -2.09869041	     64.37733249	     64.37733249	     -1.68338789	    -10.38812619	     -1.85632779	     10.79494645	     -4.99531626	     -8.93374361	     21.35797926	     21.35797926	     12.38015002	    -12.37851268	     -3.40018985	    -11.26085180	      4.52379413	      1.94238269	     -2.14827145	    -12.55722463	      0.31472116	     26.15285981	     46.53152406	      0.00000000	      0.00000000	     15.76015305	    -14.23708602	     -5.72083347	     55.51567649	     46.61107638	      0.00000000	      0.00000000
     52.47157143	     -0.50372960	     -3.27744544	      0.40983989	      1.08138383	      0.93568853	      0.44068015	     31.76743536	     -6.74554229	     -2.52825537	     61.74564749	     61.74564749	     -1.12914265	    -10.75515426	     -1.77340052	     10.44613077	     -5.22980080	     -9.03415085	     21.02350580	     21.02350580	     12.53900141	    -12.45183719	     -3.38812582	    -11.17782895	      4.92031888	      1.84296304	     -3.56959043	    -12.61961782	      0.12296858	     25.64559137	     46.55419531	      0.00000000	      0.00000000	     16.21209034	    -14.54787998	     -6.13755635	     57.02683250	     46.67269414	      0.00000000	      0.00000000
     52.48485714	     -0.70337958	     -3.41445069	      0.04786171	      1.08082134	      0.93571509	      0.44135382	     31.90281304	     -6.57215184	     -2.88287271	     58.64442775	     58.64442775	     -0.85637994	    -11.34872716	     -2.49980661	     10.12344871	     -5.41860026	     -9.30916178	     20.74835008	     20.74835008	     12.63046267	    -12.47984229	     -3.62763966	    -11.24523448	      5.10502671	      1.55951301	     -4.89205468	    -12.61526470	     -0.90729642	     25.71993773	     46.61441181	      0.00000000	      0.00000000	     15.41963740	    -15.04676144	     -7.56067024	     61.86552253	     46.86363925	      0.00000000	      0.00000000
     52.49814286	     -0.96686771	     -3.62434388	     -0.25877216	      1.08020015	      0.93570757	      0.44215294	     31.89374002	     -6.33690289	     -3.44303569	     55.10854127	     55.10854127	     -0.24216718	    -11.51862200	     -2.28900476	      9.87830665	     -5.66867351	     -9.44106849	     20.45919941	     20.45919941	     12.75737491	    -12.59529887	     -3.62695562	    -11.13124662	      5.44262782	      1.49950749	     -6.08027949	    -12.73042417	     -1.01456407	     25.27544564	     46.62962619	      0.00000000	      0.00000000	     15.99585941	    -15.36530860	     -7.94456567	     62.91685590	     46.91661974	      0.00000000	      0.00000000
     52.51142857	     -1.20726064	     -3.77128988	     -0.62932835	      1.07967018	      0.93563864	      0.44322619	     31.63783867	     -6.03462254	     -3.92406411	     51.09246609	     51.09246609	     -0.08916062	    -11.78504181	     -3.29192862	      9.56619413	     -5.89096722	     -9.73218819	     20.13338477	     20.13338477	     12.77531827	    -12.61942451	     -4.01893495	    -11.17394642	      5.63129155	      1.22209560	     -7.17122181	    -12.78250136	     -1.87227708	     25.53565799	     46.66349405	      0.00000000	      0.00000000	     15.39106426	    -15.67508861	     -9.48181891	     66.92371073	     47.11460863	      0.00000000	      0.00000000
     52.52471429	     -1.59894135	     -3.88755955	     -0.98561318	      1.07911110	      0.93535683	      0.44444607	     31.39833383	     -5.73757845	     -4.49395453	     46.84559751	     46.84559751	      0.50938307	    -11.31579465	     -2.95182920	      9.42997582	     -6.07193797	     -9.93754302	     19.81924584	     19.81924584	     12.87449072	    -12.70345062	     -4.02951737	    -10.94948461	      5.86197497	      1.30571636	     -8.20993453	    -12.87289474	     -1.92154387	     25.17630419	     46.67135157	      0.00000000	      0.00000000	     15.95146009	    -15.96190129	     -9.77861938	     67.82781400	     47.15796268	      0.00000000	      0.00000000
     52.53800000	     -1.82768946	     -3.92600738	     -1.41572449	      1.07884802	      0.93520558	      0.44591233	     30.75269878	     -5.42421255	     -5.06282680	     42.26697965	     42.26697965	      0.87559869	    -10.49650742	     -3.21600922	      9.01904576	     -6.19436751	    -10.33079675	     19.39897800	     19.39897800	     12.89766099	    -12.67884232	     -4.41887608	    -11.00101039	      5.89468127	      1.41703510	     -9.28873475	    -12.97054373	     -2.35883735	     25.53217574	     46.66848981	      0.00000000	      0.00000000	     15.76316139	    -16.10143044	    -10.69727463	     70.90090368	     47.29149305	      0.00000000	      0.00000000
     52.55128571	     -2.22388875	     -3.96659007	     -1.80847073	      1.07865931	      0.93476775	      0.44757225	     30.11734461	     -4.99973696	     -5.59923663	     37.55844174	     37.55844174	      1.34352999	     -9.30529322	     -2.69740718	      8.83571663	     -6.32164590	    -10.60389440	     19.06045664	     19.06045664	     13.00590072	    -12.75383420	     -4.48143288	    -10.74422459	      6.00513189	      1.47099693	    -10.08059856	    -13.01894265	     -2.41250509	     25.34910194	     46.67071403	      0.00000000	      0.00000000	     16.16540985	    -16.38033763	    -10.96832045	     71.74844630	     47.33135441	      0.00000000	      0.00000000
     52.56457143	     -2.53421952	     -3.91928417	     -2.20710253	      1.07870983	      0.93431882	      0.44940254	     29.25394825	     -4.59506650	     -6.11393851	     32.86567024	     32.86567024	      1.71793100	     -7.65386264	     -2.06522112	      8.52013417	     -6.36624622	    -10.94358694	     18.68490383	     18.68490383	     13.10925681	    -12.75464684	     -4.60166210	    -10.59277962	      5.99269137	      1.63206268	    -10.80793089	    -13.02926025	     -2.48395226	     25.27426739	     46.67000200	      0.00000000	      0.00000000	     16.49463630	    -16.57523871	    -11.24709814	     72.84890332	     47.37555690	      0.00000000	      0.00000000
     52.57785714	     -2.66535434	     -3.75574816	     -2.59575674	      1.07916809	      0.93391651	      0.45131958	     28.17525246	     -4.39410491	     -6.95898096	     28.54301288	     28.54301288	      2.35347624	     -4.92465654	     -0.79592742	      7.88261954	     -6.27357788	    -11.41678525	     18.10862336	     18.10862336	     13.01522086	    -12.67989086	     -5.33223703	    -10.69347275	      5.77979803	      1.45578249	    -11.47733833	    -13.08552452	     -2.91037902	     26.02886276	     46.64902525	      0.00000000	      0.00000000	     15.97475233	    -16.82027985	    -12.15864318	     75.70566985	     47.50694503	      0.00000000	      0.00000000
